# xmcd
#
# Track frame offsets: 
#        150
#        1245
#        10404
#        13410
#        17797
#        58665
#        62805
#        77435
#        79354
#        81099
#        95108
#        109295
#        112465
#        117546
#        134860
#        145579
#        163634
#        168152
#        169399
#        172656
#        177169
#        185990
#        189323
#        290864
#        294797
#        312327
#        317545
#        332489
#        334017
#
# Disc length: 4670 seconds
#
# Revision: 0
# Processed by: cddbd v1.5.2PL0 Copyright (c) Steve Scherf et al.
# Submitted via: ExactAudioCopy v0.95b4
#
DISCID=a7123c1d
DTITLE=The Beatles  - AB  Road - Complete Purple Chick Set v1.1 Jan.31
DTITLE=Various Artist - D1  FLAC
DYEAR=1900
DGENRE=
TTITLE0=Roll Announcement
TTITLE1=Two Of Us 31.01
TTITLE2=Unknown 31.02
TTITLE3=Hey Good Lookin' 31.03
TTITLE4=Take This Hammer (medley) 31.04
TTITLE5=Two Of Us (10A) 31.05
TTITLE6=Two Of Us (10B) 31.06
TTITLE7=Two Of Us 31.07
TTITLE8=Two Of Us 31.08
TTITLE9=Two Of Us 31.09
TTITLE10=Step Inside Love 31.10
TTITLE11=Friendship 31.11
TTITLE12=Tales Of Frankie Rabbit 31.12
TTITLE13=Two Of Us (11) 31.13
TTITLE14=Deed I Do 31.14
TTITLE15=Two Of Us (12) 31.15
TTITLE16=I Got Stung 31.16
TTITLE17=Step Inside Love 31.17
TTITLE18=Let It Be 31.18
TTITLE19=Let It Be 31.19
TTITLE20=The Long And Winding Road 31.20
TTITLE21=Let It Be 31.21
TTITLE22=The Long And Winding Road 31.22
TTITLE23=The Long And Winding Road (13A) 31.23
TTITLE24=The Long And Winding Road (13B) 31.24
TTITLE25=The Long And Winding Road 31.25
TTITLE26=The Long And Winding Road (14) 31.26
TTITLE27=The Long And Winding Road (15A) 31.27
TTITLE28=The Long And Winding Road (15B) 31.28
EXTD=
EXTT0=
EXTT1=
EXTT2=
EXTT3=
EXTT4=
EXTT5=
EXTT6=
EXTT7=
EXTT8=
EXTT9=
EXTT10=
EXTT11=
EXTT12=
EXTT13=
EXTT14=
EXTT15=
EXTT16=
EXTT17=
EXTT18=
EXTT19=
EXTT20=
EXTT21=
EXTT22=
EXTT23=
EXTT24=
EXTT25=
EXTT26=
EXTT27=
EXTT28=
PLAYORDER=
